<svg xmlns="http://www.w3.org/2000/svg" width="512" height="512" viewBox="0 0 512 512">
  <g id="Group_28" data-name="Group 28" transform="translate(1219 -192)">
    <g id="Ellipse_2" data-name="Ellipse 2" transform="translate(-1219 192)" fill="#fff" stroke="#000" stroke-width="30">
      <circle cx="256" cy="256" r="256" stroke="none"/>
      <circle cx="256" cy="256" r="241" fill="none"/>
    </g>
    <g id="Ellipse_3" data-name="Ellipse 3" transform="translate(-1113 298)" fill="#fff" stroke="#000" stroke-width="20">
      <circle cx="150" cy="150" r="150" stroke="none"/>
      <circle cx="150" cy="150" r="140" fill="none"/>
    </g>
    <g id="Ellipse_4" data-name="Ellipse 4" transform="translate(-1063 348)" fill="#fff" stroke="#000" stroke-width="20">
      <circle cx="100" cy="100" r="100" stroke="none"/>
      <circle cx="100" cy="100" r="90" fill="none"/>
    </g>
    <path id="Path_15" data-name="Path 15" d="M56.064-30.614Q54.889-25.659,49.941-18T41.332-7.676a8.6,8.6,0,0,1-5.061,1.881q-1.446,0-6.959-2.248Q28.227-8.5,28.227-9.1q0-.918,2.485-.918a10.021,10.021,0,0,0,6.281-1.7,38.248,38.248,0,0,0,8.225-9.175,34.221,34.221,0,0,0,5.92-14.5q.542-3.9-2.621-4.679a7.3,7.3,0,0,0-2.937-.046,39.771,39.771,0,0,0-13.512,3.12Q24.521-9.327,18.195,7.234q.362-.138,2.666-1.56a3.618,3.618,0,0,1,2.079-.688q1.311.229,2.576,2.661a7.3,7.3,0,0,1,1.039,2.936q0,1.239-1.582,1.1-1.13-.138-3.751,1.285a19.9,19.9,0,0,0-4.881,3.578,2.921,2.921,0,0,1-2.079,1.009q-1.491,0-3.66-2.019-1.356-1.33-1.175-2.294.136-.78,1.446-1.1a319.928,319.928,0,0,0,16.4-47.161Q10.286-27.265,10.286-20.567a5.732,5.732,0,0,0,.316,1.881q.09.367.859,2.34a2.379,2.379,0,0,1,.181.872q0,1.285-.994,1.285-1.4,0-5.378-7.982a4.641,4.641,0,0,1-.587-2.2q0-2.707,3.344-5.872A53.416,53.416,0,0,1,16.7-36.119,85.535,85.535,0,0,1,28.95-42.083a16.365,16.365,0,0,0,.542-3.67q0-1.835.9-1.835,1.22,0,4.293,3.349,7.456-2.2,10.077-2.156,5.016.092,7.14,5.368a20.779,20.779,0,0,1,3.615,3.165,5.291,5.291,0,0,1,1.13,3.395A17.436,17.436,0,0,1,56.064-30.614Zm53.279-9.038a39.167,39.167,0,0,1-4.79,10.919q-1.356,2.064-2.576,2.064-1.175,0-4.112-1.973-.9-.6-.9-1.239,0-.963,1.582-1.376,1.175-.367,2.666-4.175a17.079,17.079,0,0,0,1.4-5.689q0-2.156-1.672-2.156a7.787,7.787,0,0,0-1.491.184,53.28,53.28,0,0,0-7.592,2.431,3.852,3.852,0,0,1-1.22.229q-1.356,0-1.356-.918,0-.872,1.4-1.56a84.056,84.056,0,0,1,9.987-4.312,7.559,7.559,0,0,1,2.26-.6q1.039,0,2.711,2.936a17.818,17.818,0,0,1,3.118,1.147,1.992,1.992,0,0,1,.994,1.835A8.317,8.317,0,0,1,109.343-39.651ZM95.831,2.463q0,8.3-8.315,13.35-2.4,3.808-6.191,3.762-6.733-.092-15-6.1-7.095-5.138-9.806-9.909-2.576-4.45-2.576-5.6,0-1.422,2.034-3.211,1.9-1.7,2.983-1.7Q60-6.942,60-5.565A6.038,6.038,0,0,1,59.77-4.1Q62.165,2.509,69.892,8.2T83.9,13.841q5.558-.046,5.558-7.707,0-4.221-6.485-16.86t-6.485-18.1A10.737,10.737,0,0,1,78.478-35.2a29.045,29.045,0,0,1,5.875-5.551,2.5,2.5,0,0,1,1.536-.6q1.22,0,1.22,1.055A2.182,2.182,0,0,1,86.3-38.78a10.9,10.9,0,0,0-3.48,8.166q0,5.368,6.507,17.708T95.831,2.463Z" transform="translate(-1020 461.817)" stroke="#000" stroke-width="5"/>
    <line id="Line_1" data-name="Line 1" y2="32" transform="translate(-962.5 317.5)" fill="none" stroke="#000" stroke-width="20"/>
    <line id="Line_2" data-name="Line 2" y2="32" transform="translate(-832 448) rotate(90)" fill="none" stroke="#000" stroke-width="20"/>
    <line id="Line_3" data-name="Line 3" y2="32" transform="translate(-870.223 355.723) rotate(45)" fill="none" stroke="#000" stroke-width="20"/>
    <line id="Line_4" data-name="Line 4" y2="32" transform="translate(-870.223 540.277) rotate(135)" fill="none" stroke="#000" stroke-width="20"/>
    <line id="Line_1-2" data-name="Line 1" y2="32" transform="translate(-963 578.277) rotate(180)" fill="none" stroke="#000" stroke-width="20"/>
    <line id="Line_2-2" data-name="Line 2" y2="32" transform="translate(-1093.5 447.777) rotate(-90)" fill="none" stroke="#000" stroke-width="20"/>
    <line id="Line_3-2" data-name="Line 3" y2="32" transform="translate(-1055.277 540.055) rotate(-135)" fill="none" stroke="#000" stroke-width="20"/>
    <line id="Line_4-2" data-name="Line 4" y2="32" transform="translate(-1055.277 355.5) rotate(-45)" fill="none" stroke="#000" stroke-width="20"/>
  </g>
</svg>
