<svg xmlns="http://www.w3.org/2000/svg" width="525.642" height="525.642" viewBox="0 0 525.642 525.642">
  <g id="logo" transform="translate(6.571 6.571)">
    <g id="Ellipse_1" data-name="Ellipse 1" fill="#fff" stroke="#000" stroke-width="20">
      <circle cx="255.75" cy="255.75" r="255.75" stroke="none"/>
      <circle cx="255.75" cy="255.75" r="245.75" fill="none"/>
    </g>
    <line id="Line_1" data-name="Line 1" x1="128" y2="128" transform="translate(384 0.5)" fill="none" stroke="#000" stroke-width="20"/>
    <line id="Line_3" data-name="Line 3" x1="128" y2="128" transform="translate(0.5 384)" fill="none" stroke="#000" stroke-width="20"/>
    <line id="Line_2" data-name="Line 2" x1="128" y1="128" transform="translate(0.5 0.5)" fill="none" stroke="#000" stroke-width="20" opacity="0.9"/>
    <line id="Line_4" data-name="Line 4" x1="128" y2="128" transform="translate(512 384) rotate(90)" fill="none" stroke="#000" stroke-width="20"/>
    <path id="Path_1" data-name="Path 1" d="M69.672-56q-1.422,5.906-7.41,15.039t-10.418,12.3a10.5,10.5,0,0,1-6.125,2.242q-1.75,0-8.422-2.68-1.312-.547-1.312-1.258,0-1.094,3.008-1.094,4.977,0,7.6-2.023a45.842,45.842,0,0,0,9.953-10.937q6.016-8.8,7.164-17.281.656-4.648-3.172-5.578a8.968,8.968,0,0,0-3.555-.055A48.74,48.74,0,0,0,40.633-63.6Q31.5-30.625,23.844-10.883q.437-.164,3.227-1.859a4.424,4.424,0,0,1,2.516-.82q1.586.273,3.117,3.172a8.619,8.619,0,0,1,1.258,3.5q0,1.477-1.914,1.313-1.367-.164-4.539,1.531A24.065,24.065,0,0,0,21.6.219a3.556,3.556,0,0,1-2.516,1.2q-1.8,0-4.43-2.406Q13.016-2.57,13.234-3.719q.164-.93,1.75-1.312Q28.328-35.766,34.836-61.25,14.273-52.008,14.273-44.023a6.741,6.741,0,0,0,.383,2.242q.109.438,1.039,2.789a2.8,2.8,0,0,1,.219,1.039q0,1.531-1.2,1.531-1.7,0-6.508-9.516a5.469,5.469,0,0,1-.711-2.625q0-3.227,4.047-7,2.789-2.57,10.5-7a104.192,104.192,0,0,1,14.82-7.109,19.236,19.236,0,0,0,.656-4.375q0-2.188,1.094-2.187,1.477,0,5.2,3.992,9.023-2.625,12.2-2.57,6.07.109,8.641,6.4a25.026,25.026,0,0,1,4.375,3.773,6.246,6.246,0,0,1,1.367,4.047A20.5,20.5,0,0,1,69.672-56ZM174.508-66.773a46.341,46.341,0,0,1-5.8,13.016Q167.07-51.3,165.594-51.3q-1.422,0-4.977-2.352-1.094-.711-1.094-1.477,0-1.148,1.914-1.641,1.422-.437,3.227-4.977a20.108,20.108,0,0,0,1.7-6.781q0-2.57-2.023-2.57a9.559,9.559,0,0,0-1.8.219,65.2,65.2,0,0,0-9.187,2.9,4.725,4.725,0,0,1-1.477.273q-1.641,0-1.641-1.094,0-1.039,1.7-1.859A102.542,102.542,0,0,1,164.008-75.8a9.261,9.261,0,0,1,2.734-.711q1.258,0,3.281,3.5a21.766,21.766,0,0,1,3.773,1.367,2.367,2.367,0,0,1,1.2,2.188A9.78,9.78,0,0,1,174.508-66.773Zm-16.352,50.2q0,9.9-10.062,15.914-2.9,4.539-7.492,4.484-8.148-.109-18.156-7.273-8.586-6.125-11.867-11.812-3.117-5.3-3.117-6.672,0-1.7,2.461-3.828,2.3-2.023,3.609-2.023,1.258,0,1.258,1.641a7.1,7.1,0,0,1-.273,1.75q2.9,7.875,12.25,14.656t16.953,6.727q6.727-.055,6.727-9.187,0-5.031-7.848-20.1T134.75-53.867a12.667,12.667,0,0,1,2.406-7.6,34.924,34.924,0,0,1,7.109-6.617,3.055,3.055,0,0,1,1.859-.711q1.477,0,1.477,1.258a2.589,2.589,0,0,1-.984,1.8A12.905,12.905,0,0,0,142.406-56q0,6.4,7.875,21.109T158.156-16.57Z" transform="translate(165.749 291.751)" stroke="#000" stroke-width="5"/>
    <g id="Ellipse_2" data-name="Ellipse 2" transform="translate(143.75 143.75)" fill="none" stroke="#000" stroke-width="20">
      <circle cx="112" cy="112" r="112" stroke="none"/>
      <circle cx="112" cy="112" r="102" fill="none"/>
    </g>
    <g id="Ellipse_3" data-name="Ellipse 3" transform="translate(246.749 245.75)" stroke="#000" stroke-width="20">
      <circle cx="10" cy="10" r="10" stroke="none"/>
      <circle cx="10" cy="10" fill="none"/>
    </g>
  </g>
</svg>
