<svg id="wheel" xmlns="http://www.w3.org/2000/svg" width="512" height="512" viewBox="0 0 512 512">
  <g id="Group_2" data-name="Group 2">
    <g id="Group_1" data-name="Group 1">
      <path id="Path_1" data-name="Path 1" d="M437.02,74.98A256,256,0,0,0,74.98,437.02,256,256,0,0,0,437.02,74.98ZM256,482C131.383,482,30,380.617,30,256S131.383,30,256,30,482,131.383,482,256,380.617,482,256,482Z"/>
      <path id="Path_3" data-name="Path 3" d="M43.545-35q-.889,3.691-4.631,9.4T32.4-17.91a6.563,6.563,0,0,1-3.828,1.4,20.872,20.872,0,0,1-5.264-1.675q-.82-.342-.82-.786,0-.684,1.88-.684a7.664,7.664,0,0,0,4.751-1.265,28.651,28.651,0,0,0,6.221-6.836,25.283,25.283,0,0,0,4.478-10.8q.41-2.905-1.982-3.486a5.605,5.605,0,0,0-2.222-.034A30.463,30.463,0,0,0,25.4-39.751Q19.687-19.141,14.9-6.8q.273-.1,2.017-1.162a2.765,2.765,0,0,1,1.572-.513q.991.171,1.948,1.982a5.387,5.387,0,0,1,.786,2.188q0,.923-1.2.82a5.806,5.806,0,0,0-2.837.957A15.04,15.04,0,0,0,13.5.137a2.223,2.223,0,0,1-1.572.752A4.6,4.6,0,0,1,9.16-.615q-1.025-.991-.889-1.709.1-.581,1.094-.82A235.956,235.956,0,0,0,21.772-38.281Q8.921-32.5,8.921-27.515a4.213,4.213,0,0,0,.239,1.4q.068.273.649,1.743a1.75,1.75,0,0,1,.137.649q0,.957-.752.957-1.06,0-4.067-5.947a3.418,3.418,0,0,1-.444-1.641q0-2.017,2.529-4.375A40.43,40.43,0,0,1,13.774-39.1a65.12,65.12,0,0,1,9.263-4.443,12.022,12.022,0,0,0,.41-2.734q0-1.367.684-1.367.923,0,3.247,2.5A32.247,32.247,0,0,1,35-46.758q3.794.068,5.4,4A15.642,15.642,0,0,1,43.135-40.4a3.9,3.9,0,0,1,.854,2.529A12.81,12.81,0,0,1,43.545-35Zm40.3-6.733A28.963,28.963,0,0,1,80.22-33.6q-1.025,1.538-1.948,1.538a7.349,7.349,0,0,1-3.11-1.47q-.684-.444-.684-.923,0-.718,1.2-1.025.889-.273,2.017-3.11a12.567,12.567,0,0,0,1.06-4.238q0-1.606-1.265-1.606a5.974,5.974,0,0,0-1.128.137,40.747,40.747,0,0,0-5.742,1.812,2.953,2.953,0,0,1-.923.171q-1.025,0-1.025-.684,0-.649,1.06-1.162a64.088,64.088,0,0,1,7.554-3.213,5.788,5.788,0,0,1,1.709-.444q.786,0,2.051,2.188a13.6,13.6,0,0,1,2.358.854,1.479,1.479,0,0,1,.752,1.367A6.113,6.113,0,0,1,83.843-41.733ZM73.623-10.356q0,6.187-6.289,9.946a5.316,5.316,0,0,1-4.683,2.8Q57.559,2.324,51.3-2.153q-5.366-3.828-7.417-7.383-1.948-3.315-1.948-4.17A3.56,3.56,0,0,1,43.477-16.1a4.071,4.071,0,0,1,2.256-1.265q.786,0,.786,1.025a4.436,4.436,0,0,1-.171,1.094Q48.159-10.322,54-6.084t10.6,4.2q4.2-.034,4.2-5.742,0-3.145-4.9-12.561t-4.9-13.484a7.917,7.917,0,0,1,1.5-4.751,21.828,21.828,0,0,1,4.443-4.136A1.91,1.91,0,0,1,66.1-43q.923,0,.923.786a1.618,1.618,0,0,1-.615,1.128A8.066,8.066,0,0,0,63.779-35q0,4,4.922,13.193T73.623-10.356Z" transform="translate(212 279)" stroke="#000" stroke-width="5"/>
    </g>
  </g>
  <g id="Group_4" data-name="Group 4">
    <g id="Group_3" data-name="Group 3">
      <path id="Path_2" data-name="Path 2" d="M256,106c-82.71,0-150,67.29-150,150s67.29,150,150,150,150-67.29,150-150S338.71,106,256,106ZM375.065,241H344.743a89.539,89.539,0,0,0-15.41-37.12l21.423-21.423A119.426,119.426,0,0,1,375.065,241ZM271,136.936a119.411,119.411,0,0,1,58.543,24.309L308.12,182.667A89.539,89.539,0,0,0,271,167.257Zm-30,0v30.321a89.539,89.539,0,0,0-37.12,15.41l-21.423-21.422A119.426,119.426,0,0,1,241,136.936Zm-79.756,45.522,21.423,21.422A89.539,89.539,0,0,0,167.257,241H136.936A119.416,119.416,0,0,1,161.244,182.458ZM136.936,271h30.321a89.538,89.538,0,0,0,15.41,37.12l-21.423,21.422A119.416,119.416,0,0,1,136.936,271ZM241,375.064a119.408,119.408,0,0,1-58.543-24.309l21.423-21.422A89.539,89.539,0,0,0,241,344.743ZM196,256a60,60,0,1,1,60,60A60.068,60.068,0,0,1,196,256Zm75,119.065V344.743a89.538,89.538,0,0,0,37.12-15.41l21.423,21.423A119.426,119.426,0,0,1,271,375.065Zm79.755-45.522L329.333,308.12A89.539,89.539,0,0,0,344.743,271h30.321A119.412,119.412,0,0,1,350.755,329.543Z"/>
    </g>
  </g>
</svg>
