<svg xmlns="http://www.w3.org/2000/svg" xmlns:xlink="http://www.w3.org/1999/xlink" width="512" height="512" viewBox="0 0 512 512">
  <defs>
    <clipPath id="clip-ps-logo">
      <rect width="512" height="512"/>
    </clipPath>
  </defs>
  <g id="ps-logo" clip-path="url(#clip-ps-logo)">
    <g id="Ellipse_1" data-name="Ellipse 1" fill="#fff" stroke="#000" stroke-width="30">
      <circle cx="256" cy="256" r="256" stroke="none"/>
      <circle cx="256" cy="256" r="241" fill="none"/>
    </g>
    <g id="Ellipse_2" data-name="Ellipse 2" transform="translate(106 106)" fill="#fff" stroke="#000" stroke-width="20">
      <circle cx="150" cy="150" r="150" stroke="none"/>
      <circle cx="150" cy="150" r="140" fill="none"/>
    </g>
    <g id="Ellipse_3" data-name="Ellipse 3" transform="translate(156 156)" fill="#fff" stroke="#000" stroke-width="20">
      <circle cx="100" cy="100" r="100" stroke="none"/>
      <circle cx="100" cy="100" r="90" fill="none"/>
    </g>
    <line id="Line_1" data-name="Line 1" y1="60" transform="translate(256.5 108.5)" fill="none" stroke="#000" stroke-width="20"/>
    <line id="Line_2" data-name="Line 2" y1="60" transform="translate(360.091 152.409) rotate(45)" fill="none" stroke="#000" stroke-width="20"/>
    <line id="Line_3" data-name="Line 3" y1="60" transform="translate(403 256) rotate(90)" fill="none" stroke="#000" stroke-width="20"/>
    <line id="Line_4" data-name="Line 4" y1="60" transform="translate(360.091 359.591) rotate(135)" fill="none" stroke="#000" stroke-width="20"/>
    <line id="Line_5" data-name="Line 5" y1="60" transform="translate(256.5 402.5) rotate(180)" fill="none" stroke="#000" stroke-width="20"/>
    <line id="Line_6" data-name="Line 6" y1="60" transform="translate(152.909 359.591) rotate(-135)" fill="none" stroke="#000" stroke-width="20"/>
    <line id="Line_7" data-name="Line 7" y1="60" transform="translate(110 256) rotate(-90)" fill="none" stroke="#000" stroke-width="20"/>
    <line id="Line_8" data-name="Line 8" y1="60" transform="translate(152.909 152.409) rotate(-45)" fill="none" stroke="#000" stroke-width="20"/>
    <path id="Path_1" data-name="Path 1" d="M62.207-50q-1.27,5.273-6.616,13.428t-9.3,10.986a9.376,9.376,0,0,1-5.469,2q-1.563,0-7.52-2.393-1.172-.488-1.172-1.123,0-.977,2.686-.977,4.443,0,6.787-1.807a40.93,40.93,0,0,0,8.887-9.766,36.119,36.119,0,0,0,6.4-15.43q.586-4.15-2.832-4.98a8.007,8.007,0,0,0-3.174-.049,43.518,43.518,0,0,0-14.6,3.32q-8.154,29.443-14.99,47.07.391-.146,2.881-1.66a3.95,3.95,0,0,1,2.246-.732q1.416.244,2.783,2.832a7.7,7.7,0,0,1,1.123,3.125q0,1.318-1.709,1.172-1.221-.146-4.053,1.367A21.486,21.486,0,0,0,19.287.2,3.175,3.175,0,0,1,17.041,1.27q-1.611,0-3.955-2.148-1.465-1.416-1.27-2.441.146-.83,1.563-1.172Q25.293-31.934,31.1-54.687,12.744-46.436,12.744-39.307a6.018,6.018,0,0,0,.342,2q.1.391.928,2.49a2.5,2.5,0,0,1,.2.928q0,1.367-1.074,1.367-1.514,0-5.811-8.5a4.883,4.883,0,0,1-.635-2.344q0-2.881,3.613-6.25a57.757,57.757,0,0,1,9.375-6.25A93.029,93.029,0,0,1,32.91-62.207a17.175,17.175,0,0,0,.586-3.906q0-1.953.977-1.953,1.318,0,4.639,3.564Q47.168-66.846,50-66.8q5.42.1,7.715,5.713a22.345,22.345,0,0,1,3.906,3.369A5.577,5.577,0,0,1,62.842-54.1,18.3,18.3,0,0,1,62.207-50Zm57.568-9.619A41.376,41.376,0,0,1,114.6-48q-1.465,2.2-2.783,2.2-1.27,0-4.443-2.1-.977-.635-.977-1.318,0-1.025,1.709-1.465,1.27-.391,2.881-4.443a17.954,17.954,0,0,0,1.514-6.055q0-2.295-1.807-2.295a8.535,8.535,0,0,0-1.611.2,58.209,58.209,0,0,0-8.2,2.588,4.218,4.218,0,0,1-1.318.244q-1.465,0-1.465-.977,0-.928,1.514-1.66a91.555,91.555,0,0,1,10.791-4.59,8.268,8.268,0,0,1,2.441-.635q1.123,0,2.93,3.125a19.435,19.435,0,0,1,3.369,1.221,2.113,2.113,0,0,1,1.074,1.953A8.733,8.733,0,0,1,119.775-59.619Zm-14.6,44.824q0,8.838-8.984,14.209-2.588,4.053-6.689,4-7.275-.1-16.211-6.494Q65.625-8.545,62.7-13.623q-2.783-4.736-2.783-5.957,0-1.514,2.2-3.418Q64.16-24.8,65.332-24.8q1.123,0,1.123,1.465a6.337,6.337,0,0,1-.244,1.563Q68.8-14.746,77.148-8.691T92.285-2.686q6.006-.049,6.006-8.2,0-4.492-7.007-17.944T84.277-48.1a11.31,11.31,0,0,1,2.148-6.787,31.183,31.183,0,0,1,6.348-5.908,2.728,2.728,0,0,1,1.66-.635q1.318,0,1.318,1.123a2.312,2.312,0,0,1-.879,1.611A11.523,11.523,0,0,0,91.113-50q0,5.713,7.031,18.848T105.176-14.795Z" transform="translate(193 288)" stroke="#000" stroke-width="5"/>
  </g>
</svg>
